<?xml version="1.0" encoding="UTF-8"?>
<svg id="Layer_1" data-name="Layer 1" xmlns="http://www.w3.org/2000/svg" viewBox="0 0 120 120">
  <defs>
    <style>
      .cls-1 {
        fill: #2d89b7;
      }

      .cls-2 {
        fill: #fff;
      }
    </style>
  </defs>
  <circle class="cls-1" cx="60" cy="60" r="60"/>
  <path class="cls-2" d="M60.9,40.29l.5,1.93c1.45,4.12,3.62,7.95,5.95,11.62,3.44,5.42,7.8,9.47,5.86,16.57-3.2,11.7-19.75,12.58-24.13,1.32-3.15-8.09,2.52-13.1,6.36-19.38.75-1.23,1.49-2.49,2.17-3.75,1.39-2.6,2.74-5.41,3.29-8.31ZM55.68,58.86c.14-.19.3-.3.63-.66.35-.37-.53-.07-.67,0-5.14,2.41-6.12,10.33-2.9,14.66.47.64,1.8,2.03,3.52,2.78.14.06.19-.07.05-.24-.31-.36-.75-.84-1.03-1.26-3.32-4.74-3.15-10.71.4-15.28Z"/>
  <path class="cls-2" d="M107.39,49.23h-9.42c-.79-2.68-1.85-5.26-3.18-7.69l6.65-6.66c.92-.92.92-2.41,0-3.32l-12.3-12.3c-.92-.92-2.41-.92-3.32,0l-6.65,6.66c-2.44-1.32-5.01-2.39-7.69-3.18v-9.41c0-1.29-1.06-2.35-2.35-2.35h-17.4c-1.29,0-2.35,1.06-2.35,2.35v9.41c-2.68.79-5.26,1.85-7.69,3.18l-6.65-6.66c-.92-.92-2.41-.92-3.32,0l-12.3,12.3c-.92.92-.92,2.41,0,3.32l6.65,6.66c-1.32,2.44-2.39,5.01-3.18,7.69h-9.41c-1.29,0-2.35,1.06-2.35,2.35v17.4c0,1.29,1.06,2.35,2.35,2.35h9.41c.79,2.68,1.85,5.26,3.18,7.69l-6.65,6.66c-.92.92-.92,2.41,0,3.32l12.3,12.3c.92.92,2.41.92,3.32,0l6.65-6.66c2.44,1.32,5.01,2.39,7.69,3.18v9.41c0,1.29,1.05,2.35,2.34,2.35h17.4c1.29,0,2.35-1.06,2.35-2.35v-9.41c2.68-.79,5.26-1.85,7.69-3.18l6.66,6.65c.92.92,2.41.92,3.32,0l12.3-12.3c.92-.92.92-2.41,0-3.32l-6.66-6.65c1.32-2.44,2.39-5.01,3.18-7.69h9.41c1.29,0,2.35-1.05,2.35-2.34v-17.4c0-1.29-1.06-2.35-2.35-2.35ZM60.43,91.94c-17.47,0-31.67-14.2-31.67-31.67s14.22-31.67,31.67-31.67,31.67,14.2,31.67,31.67-14.2,31.67-31.67,31.67Z"/>
</svg>