<?xml version="1.0" encoding="UTF-8"?>
<svg id="Layer_1" data-name="Layer 1" xmlns="http://www.w3.org/2000/svg" viewBox="0 0 120 120">
  <defs>
    <style>
      .cls-1 {
        fill: #2d89b7;
      }

      .cls-2, .cls-3 {
        isolation: isolate;
      }

      .cls-4, .cls-3 {
        fill: #fff;
      }

      .cls-3 {
        font-family: ArialRoundedMTBold, 'Arial Rounded MT Bold';
        font-size: 24px;
      }

      .cls-5 {
        fill: none;
        stroke: #fff;
        stroke-linecap: round;
        stroke-miterlimit: 10;
        stroke-width: 4.23px;
      }
    </style>
  </defs>
  <circle class="cls-1" cx="60" cy="60" r="60"/>
  <g>
    <g>
      <g>
        <path class="cls-4" d="M29.51,58.6l.46-10.58c-3.07-.8-6.92-3.48-7.94-4.51-2.2-2.2-2.2-5.78,0-7.98.65-.65,1.44-1.13,2.3-1.4-1.05-.7-1.89-1.35-2.3-1.76-2.2-2.2-2.2-5.78,0-7.98,1.07-1.07,2.48-1.65,3.99-1.65.79,0,1.55.16,2.25.47-.24-1.2-.37-2.22-.37-2.79,0-3.11,2.52-5.65,5.63-5.66,3.12,0,5.65,2.52,5.66,5.63,0,.57-.12,1.6-.36,2.81.7-.3,1.45-.46,2.23-.46,1.51,0,2.92.59,3.99,1.65,2.2,2.2,2.2,5.78,0,7.98-.4.4-1.24,1.06-2.3,1.76.86.27,1.64.74,2.3,1.4,1.07,1.07,1.65,2.48,1.65,3.99s-.59,2.93-1.65,3.99-4.87,3.7-7.94,4.5l.46,10.58h-8.07.01Z"/>
        <path class="cls-1" d="M33.55,16.62c2.09,0,3.79,1.69,3.79,3.78,0,1.8-1.23,7.32-2.9,8.86l.13,2.86c.84-2.39,2.84-5.44,3.82-6.41.74-.74,1.71-1.11,2.68-1.11s1.94.37,2.68,1.11c1.48,1.48,1.48,3.88,0,5.36-1.25,1.25-5.91,4.2-8.22,4.2-.33,0-.61-.06-.83-.19l.31,7.09c.97-2.15,2.55-4.49,3.38-5.32.74-.74,1.71-1.11,2.68-1.11s1.94.37,2.68,1.11c1.48,1.48,1.48,3.88,0,5.36-1.25,1.25-5.91,4.2-8.22,4.2-.12,0-.23,0-.34-.02l.46,10.37h-4.21l.46-10.37c-.11.02-.22.02-.34.02-2.31,0-6.97-2.95-8.22-4.2-1.48-1.48-1.48-3.88,0-5.36.74-.74,1.71-1.11,2.68-1.11s1.94.37,2.68,1.11c.83.83,2.41,3.17,3.38,5.33l.31-7.1c-.22.14-.5.2-.84.2-2.31,0-6.97-2.95-8.22-4.2-1.48-1.48-1.48-3.88,0-5.36.74-.74,1.71-1.11,2.68-1.11s1.94.37,2.68,1.11c.98.98,2.99,4.03,3.82,6.43l.13-2.91c-1.66-1.6-2.9-7.02-2.9-8.8,0-2.09,1.69-3.8,3.78-3.8h0M33.55,12.91h-.03c-4.13.01-7.48,3.38-7.47,7.52,0,.14,0,.29.02.46h-.05c-2,0-3.88.78-5.3,2.2-2.92,2.92-2.92,7.68,0,10.6.08.08.18.17.28.27-.1.09-.19.18-.28.27-1.42,1.42-2.2,3.3-2.2,5.3s.78,3.88,2.2,5.3c1.05,1.05,4.21,3.33,7.34,4.52l-.32,7.24-.17,3.87h11.94l-.17-3.87-.32-7.24c3.13-1.19,6.29-3.47,7.34-4.52,1.42-1.42,2.2-3.3,2.2-5.3s-.78-3.88-2.2-5.3c-.09-.09-.19-.18-.28-.27.11-.1.2-.19.28-.27,1.42-1.42,2.2-3.3,2.2-5.3s-.78-3.88-2.2-5.3c-1.42-1.42-3.3-2.2-5.3-2.2h-.04c0-.19.02-.36.02-.51,0-4.12-3.37-7.47-7.5-7.47h0Z"/>
      </g>
      <g>
        <path class="cls-4" d="M56.03,54.65l.46-10.58c-3.07-.8-6.92-3.48-7.94-4.51-2.2-2.2-2.2-5.78,0-7.98.65-.65,1.44-1.13,2.3-1.4-1.06-.7-1.89-1.36-2.3-1.76-2.2-2.2-2.2-5.78,0-7.98,1.07-1.07,2.48-1.65,3.99-1.65.79,0,1.55.16,2.25.46-.24-1.2-.37-2.22-.37-2.79,0-3.11,2.52-5.65,5.63-5.66,3.12,0,5.65,2.52,5.66,5.63,0,.57-.12,1.6-.36,2.81.7-.3,1.45-.46,2.23-.46,1.51,0,2.93.59,3.99,1.65,1.07,1.07,1.65,2.48,1.65,3.99s-.59,2.93-1.65,3.99c-.4.4-1.24,1.06-2.3,1.76.86.27,1.64.74,2.3,1.4,2.2,2.2,2.2,5.78,0,7.98-1.03,1.03-4.88,3.7-7.94,4.5l.46,10.58h-8.07v.02Z"/>
        <path class="cls-1" d="M60.06,12.67c2.09,0,3.79,1.69,3.79,3.78,0,1.8-1.23,7.32-2.9,8.86l.13,2.86c.84-2.39,2.84-5.44,3.82-6.41.74-.74,1.71-1.11,2.68-1.11s1.94.37,2.68,1.11c1.48,1.48,1.48,3.88,0,5.36-1.25,1.25-5.91,4.2-8.22,4.2-.33,0-.61-.06-.83-.19l.31,7.09c.97-2.15,2.55-4.49,3.38-5.32.74-.74,1.71-1.11,2.68-1.11s1.94.37,2.68,1.11c1.48,1.48,1.48,3.88,0,5.36-1.25,1.25-5.91,4.2-8.22,4.2-.12,0-.23,0-.34-.02l.46,10.37h-4.21l.46-10.37c-.11.02-.22.02-.34.02-2.31,0-6.97-2.95-8.22-4.2-1.48-1.48-1.48-3.88,0-5.36.74-.74,1.71-1.11,2.68-1.11s1.94.37,2.68,1.11c.83.83,2.41,3.17,3.38,5.33l.31-7.1c-.22.14-.5.2-.84.2-2.31,0-6.97-2.95-8.22-4.2-1.48-1.48-1.48-3.88,0-5.36.74-.74,1.71-1.11,2.68-1.11s1.94.37,2.68,1.11c.98.98,2.99,4.03,3.82,6.43l.13-2.91c-1.66-1.6-2.9-7.02-2.9-8.8,0-2.09,1.69-3.8,3.78-3.8h0M60.06,8.96h-.03c-4.13.01-7.48,3.38-7.47,7.52,0,.14,0,.29.02.46h-.05c-2,0-3.88.78-5.3,2.2-2.92,2.92-2.92,7.68,0,10.6.08.08.18.17.28.27-.1.09-.19.18-.28.27-1.42,1.42-2.2,3.3-2.2,5.3s.78,3.88,2.2,5.3c1.05,1.05,4.21,3.33,7.34,4.52l-.32,7.24-.17,3.87h11.94l-.17-3.87-.32-7.24c3.13-1.19,6.29-3.47,7.34-4.52,1.42-1.42,2.2-3.3,2.2-5.3s-.78-3.88-2.2-5.3c-.09-.09-.19-.18-.28-.27.11-.1.2-.19.28-.27,1.42-1.42,2.2-3.3,2.2-5.3s-.78-3.88-2.2-5.3c-1.42-1.42-3.3-2.2-5.3-2.2h-.04c.01-.19.02-.36.02-.51-.01-4.12-3.37-7.47-7.5-7.47h0Z"/>
      </g>
      <g>
        <path class="cls-4" d="M82.54,58.61l.46-10.57c-3.06-.8-6.91-3.48-7.94-4.51-1.07-1.07-1.65-2.48-1.65-3.99s.59-2.93,1.65-3.99c.65-.65,1.44-1.13,2.3-1.4-1.06-.7-1.89-1.36-2.3-1.76-2.2-2.2-2.2-5.78,0-7.98,1.07-1.07,2.48-1.65,3.99-1.65.79,0,1.55.16,2.25.46-.24-1.2-.37-2.22-.37-2.78,0-3.11,2.52-5.65,5.63-5.66,3.12,0,5.65,2.52,5.66,5.63,0,.57-.12,1.6-.36,2.81.7-.3,1.45-.46,2.23-.46,1.51,0,2.92.59,3.99,1.65,2.2,2.2,2.2,5.78,0,7.98-.4.4-1.24,1.06-2.3,1.76.86.27,1.64.74,2.3,1.4,1.07,1.07,1.65,2.48,1.65,3.99s-.59,2.93-1.65,3.99c-1.03,1.03-4.87,3.7-7.94,4.5l.46,10.58h-8.07.01Z"/>
        <path class="cls-1" d="M86.58,16.62c2.09,0,3.79,1.69,3.79,3.78,0,1.8-1.23,7.32-2.9,8.86l.13,2.86c.84-2.39,2.84-5.44,3.82-6.41.74-.74,1.71-1.11,2.68-1.11s1.94.37,2.68,1.11c1.48,1.48,1.48,3.88,0,5.36-1.25,1.25-5.91,4.2-8.22,4.2-.33,0-.61-.06-.83-.19l.31,7.09c.97-2.15,2.55-4.49,3.38-5.32.74-.74,1.71-1.11,2.68-1.11s1.94.37,2.68,1.11c1.48,1.48,1.48,3.88,0,5.36-1.25,1.25-5.91,4.2-8.22,4.2-.12,0-.23,0-.34-.02l.46,10.37h-4.21l.46-10.37c-.11.02-.22.02-.34.02-2.31,0-6.97-2.95-8.22-4.2-1.48-1.48-1.48-3.88,0-5.36.74-.74,1.71-1.11,2.68-1.11s1.94.37,2.68,1.11c.83.83,2.41,3.17,3.38,5.33l.31-7.1c-.22.14-.5.2-.84.2-2.31,0-6.97-2.95-8.22-4.2-1.48-1.48-1.48-3.88,0-5.36.74-.74,1.71-1.11,2.68-1.11s1.94.37,2.68,1.11c.98.98,2.99,4.03,3.82,6.43l.13-2.91c-1.66-1.6-2.9-7.02-2.9-8.8,0-2.09,1.69-3.8,3.78-3.8h.01M86.58,12.92h-.03c-2,0-3.88.79-5.29,2.21-1.41,1.42-2.19,3.3-2.18,5.31,0,.14,0,.29.02.46h-.05c-2,0-3.88.78-5.3,2.2-1.42,1.42-2.2,3.3-2.2,5.3s.78,3.88,2.2,5.3c.08.08.18.17.28.27-.1.09-.19.18-.28.27-1.42,1.42-2.2,3.3-2.2,5.3s.78,3.88,2.2,5.3c1.05,1.05,4.21,3.33,7.34,4.52l-.32,7.24-.17,3.87h11.94l-.17-3.87-.32-7.24c3.13-1.19,6.29-3.47,7.34-4.52,1.42-1.42,2.2-3.3,2.2-5.3s-.78-3.88-2.2-5.3c-.09-.09-.19-.18-.28-.27.11-.1.2-.19.28-.27,1.42-1.42,2.2-3.3,2.2-5.3s-.78-3.88-2.2-5.3c-1.42-1.42-3.3-2.2-5.3-2.2h-.04c.01-.19.02-.36.02-.51-.01-4.12-3.37-7.47-7.5-7.47h.01Z"/>
      </g>
    </g>
    <path class="cls-5" d="M94.32,71.86c-9.25-8.36-21.22-12.96-33.7-12.96s-23.9,4.4-33.05,12.38"/>
    <path class="cls-5" d="M21.3,65.66c10.51-9.17,24.27-14.73,39.31-14.73s29.48,5.83,40.09,15.41"/>
  </g>
  <g class="cls-2">
    <text class="cls-3" transform="translate(33.54 95.83)"><tspan x="0" y="0">2020</tspan></text>
  </g>
</svg>