<?xml version="1.0" encoding="UTF-8"?>
<svg id="Layer_1" xmlns="http://www.w3.org/2000/svg" version="1.1" viewBox="0 0 120 120">
  <!-- Generator: Adobe Illustrator 29.8.1, SVG Export Plug-In . SVG Version: 2.1.1 Build 2)  -->
  <circle cx="60" cy="60" r="60" style="fill: #2d89b7;"/>
  <g>
    <g>
      <g>
        <path d="M35.619,48.186l.368-8.464c-2.456-.64-5.536-2.784-6.352-3.608-1.76-1.76-1.76-4.624,0-6.384.52-.52,1.152-.904,1.84-1.12-.84-.56-1.512-1.08-1.84-1.408-1.76-1.76-1.76-4.624,0-6.384.856-.856,1.984-1.32,3.192-1.32.632,0,1.24.128,1.8.376-.192-.96-.296-1.776-.296-2.232,0-2.488,2.016-4.52,4.504-4.528,2.496,0,4.52,2.016,4.528,4.504,0,.456-.096,1.28-.288,2.248.56-.24,1.16-.368,1.784-.368,1.208,0,2.336.472,3.192,1.32,1.76,1.76,1.76,4.624,0,6.384-.32.32-.992.848-1.84,1.408.688.216,1.312.592,1.84,1.12.856.856,1.32,1.984,1.32,3.192s-.472,2.344-1.32,3.192c-.824.824-3.896,2.96-6.352,3.6l.368,8.464h-6.456l.008.008Z" style="fill: #fff;"/>
        <path d="M38.851,14.602c1.672,0,3.032,1.352,3.032,3.024,0,1.44-.984,5.856-2.32,7.088l.104,2.288c.672-1.912,2.272-4.352,3.056-5.128.592-.592,1.368-.888,2.144-.888s1.552.296,2.144.888c1.184,1.184,1.184,3.104,0,4.288-1,1-4.728,3.36-6.576,3.36-.264,0-.488-.048-.664-.152l.248,5.672c.776-1.72,2.04-3.592,2.704-4.256.592-.592,1.368-.888,2.144-.888s1.552.296,2.144.888c1.184,1.184,1.184,3.104,0,4.288-1,1-4.728,3.36-6.576,3.36-.096,0-.184,0-.272-.016l.368,8.296h-3.368l.368-8.296c-.088.016-.176.016-.272.016-1.848,0-5.576-2.36-6.576-3.36-1.184-1.184-1.184-3.104,0-4.288.592-.592,1.368-.888,2.144-.888s1.552.296,2.144.888c.664.664,1.928,2.536,2.704,4.264l.248-5.68c-.176.112-.4.16-.672.16-1.848,0-5.576-2.36-6.576-3.36-1.184-1.184-1.184-3.104,0-4.288.592-.592,1.368-.888,2.144-.888s1.552.296,2.144.888c.784.784,2.392,3.224,3.056,5.144l.104-2.328c-1.328-1.28-2.32-5.616-2.32-7.04,0-1.672,1.352-3.04,3.024-3.04h.008M38.851,11.634h-.024c-3.304.008-5.984,2.704-5.976,6.016,0,.112,0,.232.016.368h-.04c-1.6,0-3.104.624-4.24,1.76-2.336,2.336-2.336,6.144,0,8.48.064.064.144.136.224.216-.08.072-.152.144-.224.216-1.136,1.136-1.76,2.64-1.76,4.24s.624,3.104,1.76,4.24c.84.84,3.368,2.664,5.872,3.616l-.256,5.792-.136,3.096h9.552l-.136-3.096-.256-5.792c2.504-.952,5.032-2.776,5.872-3.616,1.136-1.136,1.76-2.64,1.76-4.24s-.624-3.104-1.76-4.24c-.072-.072-.152-.144-.224-.216.088-.08.16-.152.224-.216,1.136-1.136,1.76-2.64,1.76-4.24s-.624-3.104-1.76-4.24c-1.136-1.136-2.64-1.76-4.24-1.76h-.032c.008-.152.016-.288.016-.408-.008-3.296-2.696-5.976-6-5.976h.008Z" style="fill: #2d89b7;"/>
      </g>
      <g>
        <path d="M56.835,45.026l.368-8.464c-2.456-.64-5.536-2.784-6.352-3.608-1.76-1.76-1.76-4.624,0-6.384.52-.52,1.152-.904,1.84-1.12-.848-.56-1.512-1.088-1.84-1.408-1.76-1.76-1.76-4.624,0-6.384.856-.856,1.984-1.32,3.192-1.32.632,0,1.24.128,1.8.368-.192-.96-.296-1.776-.296-2.232,0-2.488,2.016-4.52,4.504-4.528,2.496,0,4.52,2.016,4.528,4.504,0,.456-.096,1.28-.288,2.248.56-.24,1.16-.368,1.784-.368,1.208,0,2.344.472,3.192,1.32.856.856,1.32,1.984,1.32,3.192s-.472,2.344-1.32,3.192c-.32.32-.992.848-1.84,1.408.688.216,1.312.592,1.84,1.12,1.76,1.76,1.76,4.624,0,6.384-.824.824-3.904,2.96-6.352,3.6l.368,8.464h-6.456l.008.016Z" style="fill: #fff;"/>
        <path d="M60.059,11.442c1.672,0,3.032,1.352,3.032,3.024,0,1.44-.984,5.856-2.32,7.088l.104,2.288c.672-1.912,2.272-4.352,3.056-5.128.592-.592,1.368-.888,2.144-.888s1.552.296,2.144.888c1.184,1.184,1.184,3.104,0,4.288-1,1-4.728,3.36-6.576,3.36-.264,0-.488-.048-.664-.152l.248,5.672c.776-1.72,2.04-3.592,2.704-4.256.592-.592,1.368-.888,2.144-.888s1.552.296,2.144.888c1.184,1.184,1.184,3.104,0,4.288-1,1-4.728,3.36-6.576,3.36-.096,0-.184,0-.272-.016l.368,8.296h-3.368l.368-8.296c-.088.016-.176.016-.272.016-1.848,0-5.576-2.36-6.576-3.36-1.184-1.184-1.184-3.104,0-4.288.592-.592,1.368-.888,2.144-.888s1.552.296,2.144.888c.664.664,1.928,2.536,2.704,4.264l.248-5.68c-.176.112-.4.16-.672.16-1.848,0-5.576-2.36-6.576-3.36-1.184-1.184-1.184-3.104,0-4.288.592-.592,1.368-.888,2.144-.888s1.552.296,2.144.888c.784.784,2.392,3.224,3.056,5.144l.104-2.328c-1.328-1.28-2.32-5.616-2.32-7.04,0-1.672,1.352-3.04,3.024-3.04h.008M60.059,8.474h-.024c-3.304.008-5.984,2.704-5.976,6.016,0,.112,0,.232.016.368h-.04c-1.6,0-3.104.624-4.24,1.76-2.336,2.336-2.336,6.144,0,8.48.064.064.144.136.224.216-.08.072-.152.144-.224.216-1.136,1.136-1.76,2.64-1.76,4.24s.624,3.104,1.76,4.24c.84.84,3.368,2.664,5.872,3.616l-.256,5.792-.136,3.096h9.552l-.136-3.096-.256-5.792c2.504-.952,5.032-2.776,5.872-3.616,1.136-1.136,1.76-2.64,1.76-4.24s-.624-3.104-1.76-4.24c-.072-.072-.152-.144-.224-.216.088-.08.16-.152.224-.216,1.136-1.136,1.76-2.64,1.76-4.24s-.624-3.104-1.76-4.24c-1.136-1.136-2.64-1.76-4.24-1.76h-.032c.008-.152.016-.288.016-.408-.008-3.296-2.696-5.976-6-5.976h.008Z" style="fill: #2d89b7;"/>
      </g>
      <g>
        <path d="M78.043,48.194l.368-8.456c-2.448-.64-5.528-2.784-6.352-3.608-.856-.856-1.32-1.984-1.32-3.192s.472-2.344,1.32-3.192c.52-.52,1.152-.904,1.84-1.12-.848-.56-1.512-1.088-1.84-1.408-1.76-1.76-1.76-4.624,0-6.384.856-.856,1.984-1.32,3.192-1.32.632,0,1.24.128,1.8.368-.192-.96-.296-1.776-.296-2.224,0-2.488,2.016-4.52,4.504-4.528,2.496,0,4.52,2.016,4.528,4.504,0,.456-.096,1.28-.288,2.248.56-.24,1.16-.368,1.784-.368,1.208,0,2.336.472,3.192,1.32,1.76,1.76,1.76,4.624,0,6.384-.32.32-.992.848-1.84,1.408.688.216,1.312.592,1.84,1.12.856.856,1.32,1.984,1.32,3.192s-.472,2.344-1.32,3.192c-.824.824-3.896,2.96-6.352,3.6l.368,8.464h-6.456.008Z" style="fill: #fff;"/>
        <path d="M81.275,14.602c1.672,0,3.032,1.352,3.032,3.024,0,1.44-.984,5.856-2.32,7.088l.104,2.288c.672-1.912,2.272-4.352,3.056-5.128.592-.592,1.368-.888,2.144-.888s1.552.296,2.144.888c1.184,1.184,1.184,3.104,0,4.288-1,1-4.728,3.36-6.576,3.36-.264,0-.488-.048-.664-.152l.248,5.672c.776-1.72,2.04-3.592,2.704-4.256.592-.592,1.368-.888,2.144-.888s1.552.296,2.144.888c1.184,1.184,1.184,3.104,0,4.288-1,1-4.728,3.36-6.576,3.36-.096,0-.184,0-.272-.016l.368,8.296h-3.368l.368-8.296c-.088.016-.176.016-.272.016-1.848,0-5.576-2.36-6.576-3.36-1.184-1.184-1.184-3.104,0-4.288.592-.592,1.368-.888,2.144-.888s1.552.296,2.144.888c.664.664,1.928,2.536,2.704,4.264l.248-5.68c-.176.112-.4.16-.672.16-1.848,0-5.576-2.36-6.576-3.36-1.184-1.184-1.184-3.104,0-4.288.592-.592,1.368-.888,2.144-.888s1.552.296,2.144.888c.784.784,2.392,3.224,3.056,5.144l.104-2.328c-1.328-1.28-2.32-5.616-2.32-7.04,0-1.672,1.352-3.04,3.024-3.04h.008M81.275,11.642h-.024c-1.6,0-3.104.632-4.232,1.768-1.128,1.136-1.752,2.64-1.744,4.248,0,.112,0,.232.016.368h-.04c-1.6,0-3.104.624-4.24,1.76-1.136,1.136-1.76,2.64-1.76,4.24s.624,3.104,1.76,4.24c.064.064.144.136.224.216-.08.072-.152.144-.224.216-1.136,1.136-1.76,2.64-1.76,4.24s.624,3.104,1.76,4.24c.84.84,3.368,2.664,5.872,3.616l-.256,5.792-.136,3.096h9.552l-.136-3.096-.256-5.792c2.504-.952,5.032-2.776,5.872-3.616,1.136-1.136,1.76-2.64,1.76-4.24s-.624-3.104-1.76-4.24c-.072-.072-.152-.144-.224-.216.088-.08.16-.152.224-.216,1.136-1.136,1.76-2.64,1.76-4.24s-.624-3.104-1.76-4.24c-1.136-1.136-2.64-1.76-4.24-1.76h-.032c.008-.152.016-.288.016-.408-.008-3.296-2.696-5.976-6-5.976h.008Z" style="fill: #2d89b7;"/>
      </g>
    </g>
    <path d="M87.467,58.794c-7.4-6.688-16.976-10.368-26.96-10.368s-19.12,3.52-26.44,9.904" style="fill: none; stroke: #fff; stroke-linecap: round; stroke-miterlimit: 10; stroke-width: 4.23px;"/>
    <path d="M29.051,53.834c8.408-7.336,19.416-11.784,31.448-11.784s23.584,4.664,32.072,12.328" style="fill: none; stroke: #fff; stroke-linecap: round; stroke-miterlimit: 10; stroke-width: 4.23px;"/>
  </g>
  <g style="isolation: isolate;">
    <text transform="translate(33.5398 79.83)" style="fill: #fff; font-family: ArialRoundedMTBold, &apos;Arial Rounded MT Bold&apos;; font-size: 21px; isolation: isolate;"><tspan x="0" y="0">2004-</tspan><tspan x="0" y="20">2013</tspan></text>
  </g>
</svg>