<?xml version="1.0" encoding="UTF-8"?>
<svg id="Layer_1" xmlns="http://www.w3.org/2000/svg" version="1.1" viewBox="0 0 89.504 78.1285">
  <!-- Generator: Adobe Illustrator 30.0.0, SVG Export Plug-In . SVG Version: 2.1.1 Build 123)  -->
  <path d="M89.504,72.5035l-7.8125-54.73c-.3555-2.418-2.4375-4.2305-4.875-4.2305h-15.688c-1.457-7.707-8.2305-13.543-16.355-13.543s-14.895,5.832-16.355,13.543h-15.688c-2.4375,0-4.543,1.8125-4.875,4.2305L.043,72.5035c-.043.2305-.043.457-.043.6875,0,2.7305,2.207,4.9375,4.9375,4.9375h66.938c.582,0,1.043-.457,1.043-1.043,0-.582-.457-1.043-1.043-1.043l-66.977.0039c-1.5625,0-2.8555-1.2695-2.8555-2.8555,0-.1445,0-.2695.0195-.3945l7.8125-54.73c.207-1.3945,1.418-2.4375,2.8125-2.4375h15.438c-.0195.3555-.0625.6875-.0625,1.043,0,4.082,1.168,8.082,3.3555,11.52l10.105,15.895c.6875,1.1055,1.8945,1.75,3.207,1.75s2.5-.668,3.207-1.75l10.105-15.895c2.1875-3.4375,3.3555-7.4375,3.3555-11.52,0-.3555-.0195-.6875-.0625-1.043h15.438c1.418,0,2.625,1.043,2.8125,2.4375l7.8125,54.707c0,.125.0195.2695.0195.3945,0,1.5625-1.2695,2.8555-2.8555,2.8555h-4.4375c-.582,0-1.043.457-1.043,1.043,0,.582.457,1.043,1.043,1.043h4.4375c2.7305,0,4.9375-2.207,4.9375-4.9375,0-.2305,0-.457-.043-.6875l.0469.0191h0ZM44.754,25.0035c-4.6055,0-8.332-3.7305-8.332-8.332,0-4.6055,3.7305-8.332,8.332-8.332,4.6055,0,8.332,3.7305,8.332,8.332,0,4.6055-3.7305,8.332-8.332,8.332Z"/>
  <path d="M74.149,18.7535h-9.707c-.168,2.2695-.6875,4.5-1.4805,6.6055.332.0195.6445.043.9805.043,1.8125.043,3.6445-.1445,5.4375.082,3.582.4805,6.668,3.0195,8.332,6.2305l-1.5-11.145c-.125-1.043-1.0195-1.8125-2.0625-1.8125,0,0,0-.0035,0-.0035Z"/>
  <path d="M27.047,51.9645c2.0195-1.125,4.5-1.168,6.7695-.707,2.2695.457,4.418,1.375,6.625,2.125,2.1875.75,4.5195,1.332,6.8125,1.043,2.1055-.25,4.1055-1.25,5.582-2.7695,1.8945-1.918,2.8125-5.1445,1.207-7.293-.457-.582-1.043-1.043-1.707-1.3555l-1.75,2.75c-1.2695,2-3.457,3.207-5.832,3.207s-4.5625-1.207-5.832-3.207l-2.6875-4.207c-3.625-.3125-7.293-1.2695-10.02-3.6445-1.375-1.168-2.457-2.668-3.9805-3.6445-3.207-2.082-7.3945-1.332-11.125-.5195l-4.918,36.832c-.168,1.25.8125,2.3555,2.0625,2.3555h27.082c.3125-3.3125-1.1445-6.2305-3.707-8.332-1.3555-1.1055-2.957-1.8555-4.418-2.832-1.4375-.9805-2.7695-2.3125-3.1445-4.0195-.5-2.2695.9375-4.668,2.9805-5.7695l.0005-.0119h0Z"/>
  <path d="M70.711,57.6515c-1.457-1.168-1.957-4.1445-4.5195-3.793-4.082.5625-.668,6.125-4.9375,7.8945-1.375.5625-2.4805,1.3555-2.4805,2.9805,0,3.125,3.582,4.5,5.957,3.2305,1.2695-.6875,1.75-1.8555,3.1055-2.5625,2.2305-1.1875,5.668.625,7.7695-.9375,1.6875-1.2305,1.9375-3.918.3125-5.207-1.4805-1.2305-3.7305-.375-5.2305-1.582l.0235-.0235Z"/>
</svg>