<?xml version="1.0" encoding="UTF-8"?>
<svg id="Layer_1" data-name="Layer 1" xmlns="http://www.w3.org/2000/svg" viewBox="0 0 120 120">
  <defs>
    <style>
      .cls-1 {
        fill: #2d89b7;
      }

      .cls-2, .cls-3 {
        isolation: isolate;
      }

      .cls-3 {
        font-family: ArialRoundedMTBold, 'Arial Rounded MT Bold';
        font-size: 21.34px;
      }

      .cls-3, .cls-4 {
        fill: #fff;
      }
    </style>
  </defs>
  <circle class="cls-1" cx="60" cy="60" r="60"/>
  <path class="cls-4" d="M105.18,59.36c0-24.9-20.21-45.12-45.12-45.12S14.95,34.46,14.95,59.36s20.21,45.12,45.12,45.12,45.12-20.21,45.12-45.12h-.01ZM30.38,82.73c-5.41-6.77-8.21-14.8-8.21-23.37,0-20.93,16.96-37.9,37.9-37.9,8.66,0,17.05,2.98,23.82,8.48.36.36.63.81.63,1.35s-.18.99-.54,1.35l-50.98,50.26c-.36.36-.9.54-1.35.54s-.99-.27-1.26-.72h0ZM35.52,88.23c-.36-.36-.63-.81-.63-1.44,0-.45.18-.9.54-1.26l51.16-50.44c.36-.36.81-.54,1.35-.54s.99.27,1.26.63c5.68,6.86,8.75,15.43,8.75,24.18,0,20.93-16.96,37.9-37.9,37.9-8.93,0-17.69-3.25-24.54-9.02h.01Z"/>
  <g class="cls-2">
    <text class="cls-3" transform="translate(30.2 53.77)"><tspan x="0" y="0">TU</tspan></text>
  </g>
  <g class="cls-2">
    <text class="cls-3" transform="translate(60.07 83.5)"><tspan x="0" y="0">CP</tspan></text>
  </g>
</svg>